<?xml version="1.0" encoding="UTF-8" standalone="no"?>
<!-- Created with Inkscape (http://www.inkscape.org/) -->

<svg
   xmlns:osb="http://www.openswatchbook.org/uri/2009/osb"
   xmlns:dc="http://purl.org/dc/elements/1.1/"
   xmlns:cc="http://creativecommons.org/ns#"
   xmlns:rdf="http://www.w3.org/1999/02/22-rdf-syntax-ns#"
   xmlns:svg="http://www.w3.org/2000/svg"
   xmlns="http://www.w3.org/2000/svg"
   xmlns:xlink="http://www.w3.org/1999/xlink"
   xmlns:sodipodi="http://sodipodi.sourceforge.net/DTD/sodipodi-0.dtd"
   xmlns:inkscape="http://www.inkscape.org/namespaces/inkscape"
   width="16px"
   height="16px"
   id="svg33222"
   version="1.1"
   inkscape:version="0.92.3 (2405546, 2018-03-11)"
   sodipodi:docname="border-insensitive.svg">
  <defs
     id="defs33224">
    <linearGradient
       id="linearGradient4542"
       osb:paint="solid">
      <stop
         style="stop-color:#afaca9;stop-opacity:1;"
         offset="0"
         id="stop4540" />
    </linearGradient>
    <linearGradient
       id="linearGradient4532"
       osb:paint="solid">
      <stop
         style="stop-color:#ff8080;stop-opacity:1;"
         offset="0"
         id="stop4530" />
    </linearGradient>
    <linearGradient
       inkscape:collect="always"
       xlink:href="#linearGradient4532"
       id="linearGradient4534"
       x1="0.01147935"
       y1="7.4945227"
       x2="15.987862"
       y2="7.4945227"
       gradientUnits="userSpaceOnUse" />
    <linearGradient
       inkscape:collect="always"
       xlink:href="#linearGradient4542"
       id="linearGradient4544"
       x1="0.018227862"
       y1="7.5026669"
       x2="15.98311"
       y2="7.5026669"
       gradientUnits="userSpaceOnUse" />
  </defs>
  <sodipodi:namedview
     id="base"
     pagecolor="#8e8e8e"
     bordercolor="#666666"
     borderopacity="1.0"
     inkscape:pageopacity="1"
     inkscape:pageshadow="2"
     inkscape:zoom="45.254834"
     inkscape:cx="8.5586326"
     inkscape:cy="8.3150335"
     inkscape:current-layer="layer1"
     showgrid="false"
     inkscape:grid-bbox="true"
     inkscape:document-units="px"
     inkscape:window-width="1920"
     inkscape:window-height="1057"
     inkscape:window-x="1912"
     inkscape:window-y="1072"
     inkscape:window-maximized="1"
     inkscape:snap-nodes="false"
     inkscape:snap-bbox="true"
     inkscape:showpageshadow="false"
     showborder="false">
    <inkscape:grid
       type="xygrid"
       id="grid2992"
       empspacing="5"
       visible="true"
       enabled="true"
       snapvisiblegridlinesonly="true" />
  </sodipodi:namedview>
  <metadata
     id="metadata33227">
    <rdf:RDF>
      <cc:Work
         rdf:about="">
        <dc:format>image/svg+xml</dc:format>
        <dc:type
           rdf:resource="http://purl.org/dc/dcmitype/StillImage" />
        <dc:title />
      </cc:Work>
    </rdf:RDF>
  </metadata>
  <g
     id="layer1"
     inkscape:label="Layer 1"
     inkscape:groupmode="layer">
    <path
       style="color:#000000;fill:none;stroke:#ffffff;stroke-width:1;stroke-miterlimit:4;stroke-opacity:1;marker:none;visibility:visible;display:inline;overflow:visible;enable-background:accumulate;opacity:0.6"
       d="m 15.5,4 0,8.999999 c 0,1.385 -1.115,2.5 -2.5,2.5 l -9.9999995,0 c -1.3850003,0 -2.5000005,-1.115 -2.5000005,-2.5 L 0.5,4"
       id="rect17861-5"
       inkscape:connector-curvature="0"
       sodipodi:nodetypes="cssssc" />
    <rect
       ry="2.5"
       rx="2.5000005"
       y="0.5"
       x="0.5"
       height="13.999999"
       width="15"
       id="rect17861"
       style="color:#000000;fill:none;stroke:#a9a5a2;stroke-width:1;stroke-miterlimit:4;stroke-opacity:1;stroke-dasharray:none;marker:none;visibility:visible;display:inline;overflow:visible;enable-background:accumulate" />
    <path
       style="fill:url(#linearGradient4534);fill-opacity:1;stroke:none;stroke-width:0.02209709"
       d="M 2.707324,14.984056 C 1.9655619,14.885827 1.3720645,14.602969 0.88431429,14.115219 0.45100409,13.681909 0.16734887,13.140284 0.0510936,12.524229 0.01376562,12.326422 0.01147935,12.035017 0.01147935,7.4750442 c 0,-4.5550016 0.0023107,-4.8502949 0.03933674,-5.0270873 C 0.19989463,1.736136 0.55186708,1.1361965 1.0735463,0.70470601 1.5579768,0.30402468 2.1094711,0.07647447 2.7404696,0.01692245 2.9176542,2.0021607e-4 4.5633279,-0.00468479 8.176353,7.86591e-4 13.948599,0.00952779 13.466677,-0.00379353 13.95828,0.16061096 14.839,0.45514622 15.545294,1.1614382 15.840388,2.0427124 c 0.158891,0.4745171 0.147285,0.044737 0.147285,5.4544289 V 12.3585 l -0.04986,0.225135 c -0.136423,0.615998 -0.403286,1.113285 -0.82228,1.532279 -0.414708,0.414708 -0.905484,0.679822 -1.520997,0.821634 l -0.21432,0.04938 -5.3033009,0.003 c -2.9168155,0.0016 -5.3331319,-9.97e-4 -5.3695921,-0.0058 z M 13.273657,13.9811 c 0.439148,-0.06004 0.806974,-0.245888 1.134074,-0.572988 0.220176,-0.220176 0.345017,-0.405326 0.449164,-0.666151 0.12973,-0.324895 0.122071,-0.0076 0.12663,-5.2448197 l 0.0042,-4.817165 -0.04715,-0.1767767 C 14.74407,1.7664792 14.213279,1.2507112 13.43546,1.040688 13.300814,1.0043315 12.970435,1.00146 8.1542559,0.99478488 4.7410236,0.99005424 2.9451089,0.9952854 2.8034317,1.0103708 1.9582621,1.100362 1.2771778,1.6830867 1.0586244,2.5031996 l -0.04711,0.1767767 0.00414,4.817165 c 0.0045,5.2374337 -0.00317,4.9198207 0.1266041,5.2448197 0.2223078,0.556744 0.7045157,0.998937 1.2787563,1.172642 0.08455,0.02558 0.2133901,0.05511 0.2863105,0.06562 0.2016074,0.02907 10.3539447,0.02992 10.5663327,8.75e-4 z"
       id="path4528"
       inkscape:connector-curvature="0" />
    <path
       style="fill:#ff8080;fill-opacity:1;stroke:none;stroke-width:0.02209709"
       d="M 2.8023414,14.977028 C 2.2935105,14.949803 1.8203676,14.796305 1.3881279,14.518224 0.7004713,14.075822 0.23421417,13.392228 0.05823193,12.568423 0.02015146,12.390161 0.01810848,12.131382 0.01810848,7.4860927 c 0,-4.613516 0.0022626,-4.90499 0.03941144,-5.077146 C 0.18195503,1.8322872 0.47111821,1.2973945 0.87909769,0.88919607 1.3241003,0.44395457 1.854585,0.1673398 2.4929822,0.04765556 2.705194,0.00787093 2.9193552,0.00628445 7.89572,0.00763258 c 3.7957,0.00102829 5.260975,0.00839337 5.477883,0.02753413 0.235586,0.020789 0.343992,0.04238178 0.53033,0.10563359 0.943944,0.32041846 1.631692,1.0083034 1.955252,1.9556397 0.06876,0.2013201 0.08298,0.2785839 0.101677,0.5524272 0.01319,0.1932485 0.02168,2.1681394 0.02159,5.0250508 -1.55e-4,4.542185 -0.0016,4.713313 -0.04213,4.896478 -0.130362,0.589427 -0.38208,1.073833 -0.769636,1.481087 -0.418311,0.439573 -0.889175,0.707933 -1.554603,0.886014 l -0.185041,0.04952 -5.1707181,0.0027 c -2.8438951,0.0015 -5.2999863,-0.0042 -5.4579805,-0.01268 z m 9.6011846,-0.992096 1.005417,-0.01539 0.209922,-0.07172 c 0.313456,-0.107091 0.525573,-0.242738 0.784008,-0.501363 0.233496,-0.233668 0.320618,-0.360476 0.444461,-0.646924 0.05739,-0.132749 0.08139,-0.228607 0.09857,-0.393738 0.01433,-0.137712 0.02755,-1.959474 0.03582,-4.9359985 l 0.01311,-4.7177281 -0.04843,-0.1767767 C 14.876278,2.2693561 14.682355,1.8893519 14.537422,1.7238704 14.260852,1.4080883 13.987,1.2281305 13.552574,1.0766919 13.410552,1.0271837 13.391614,1.0264408 11.862147,1.0103767 9.7365313,0.98805121 3.8047181,0.98844436 3.1558948,1.0109536 2.604609,1.0300792 2.5225059,1.043385 2.2275882,1.1613977 1.6906779,1.3762451 1.2673243,1.8496861 1.0810599,2.4435733 l -0.057534,0.1834416 6.926e-4,4.6116263 c 3.809e-4,2.5363944 0.00985,4.7678318 0.021032,4.9587498 0.017232,0.294092 0.029374,0.370049 0.079477,0.497184 0.1950755,0.495008 0.5777226,0.902386 1.0538742,1.121988 0.3241055,0.149478 0.3341521,0.150727 1.3308463,0.165399 1.2961964,0.01908 7.701525,0.02122 8.894078,0.003 z"
       id="path4536"
       inkscape:connector-curvature="0" />
    <path
       style="fill:url(#linearGradient4544);fill-opacity:1;stroke:none;stroke-width:0.02209709"
       d="M 2.7581473,14.976512 C 1.4541948,14.891737 0.34288152,13.907764 0.05751992,12.585336 0.02036145,12.413135 0.01811553,12.11974 0.01823176,7.4529471 L 0.01835506,2.5031996 0.08009379,2.2832622 C 0.30196514,1.4928704 0.74867839,0.87968153 1.4120109,0.45498274 1.6750678,0.28656042 2.0498162,0.13863113 2.4225276,0.0560883 l 0.2251342,-0.0498595 5.2701553,8.5517e-4 c 3.9072819,6.3401e-4 5.3310299,0.00762129 5.5055559,0.02701938 0.611417,0.06795768 1.254363,0.39819888 1.724406,0.88571981 0.336843,0.34936864 0.558162,0.71553174 0.714029,1.18133414 0.06151,0.1838115 0.08263,0.2913518 0.09928,0.5055826 0.01255,0.1613653 0.02136,2.2037759 0.02166,5.0183912 5.55e-4,5.2516129 0.01152,4.8450749 -0.143238,5.3110819 -0.148249,0.446411 -0.375482,0.818847 -0.703376,1.152836 -0.418456,0.426235 -0.870679,0.679894 -1.502592,0.842826 l -0.260735,0.06723 -5.185798,-0.0034 c -2.8521887,-0.0019 -5.2951784,-0.01051 -5.4288657,-0.0192 z m 10.8386207,-1.07372 c 0.362597,-0.131852 0.554103,-0.256756 0.831117,-0.542074 0.274143,-0.282361 0.441519,-0.578451 0.491592,-0.869635 0.03611,-0.209982 0.0461,-1.134217 0.06048,-5.5926943 l 0.01347,-4.178481 -0.0478,-0.1742441 C 14.919332,2.4498292 14.85901,2.2885987 14.811574,2.1873737 14.585124,1.7041424 14.29433,1.4144421 13.806039,1.185621 13.448766,1.0181976 13.751326,1.0318005 9.9176034,1.0107995 5.8737738,0.9886475 2.7746836,1.0106496 2.5451857,1.0631402 2.2036927,1.1412462 1.8569556,1.334605 1.6010429,1.5896436 1.3662964,1.8235883 1.208575,2.0855762 1.0883356,2.4412915 l -0.065038,0.1924084 0.00422,4.1000507 c 0.00232,2.255028 0.010299,4.4729394 0.017731,4.9286914 0.013407,0.822109 0.013971,0.829913 0.071455,0.990088 0.089795,0.250207 0.2329241,0.480672 0.4247378,0.68391 0.1960512,0.207728 0.3684415,0.3384 0.5980269,0.453305 0.238671,0.119453 0.3706343,0.15222 0.6849729,0.17008 0.1579942,0.009 2.6041417,0.01518 5.4358834,0.01379 l 5.1486214,-0.0025 z"
       id="path4538"
       inkscape:connector-curvature="0" />
    <path
       style="fill:#afaca9;fill-opacity:1;stroke:none;stroke-width:0.02209709"
       d="M 2.5040308,14.964985 C 1.9490685,14.864017 1.446357,14.626014 1.0225288,14.263585 0.53175827,13.843912 0.1541799,13.182628 0.04800719,12.556826 l -0.02989871,-0.176229 -0.012149,0.408797 C -7.22467e-4,13.014231 -0.00569431,10.791817 -0.00508906,7.8506947 L -0.00398861,2.5031996 0.08033965,2.2380346 C 0.26240561,1.6655393 0.5013139,1.2475299 0.84395727,0.90195968 1.2787719,0.46343094 1.7370367,0.20958964 2.364713,0.05958515 l 0.2694948,-0.06440489 5.3100279,1.3037e-4 c 5.8460033,1.4341e-4 5.5199813,-0.00730309 5.9706563,0.13637301 0.466894,0.14884662 0.839269,0.37921222 1.207315,0.7468935 0.367598,0.36723256 0.582653,0.71714366 0.747247,1.21582646 0.143127,0.4336389 0.136133,0.1156481 0.130737,5.9441163 -0.0027,2.9107391 -0.0078,5.0958641 -0.01139,4.8558351 -0.0044,-0.295589 -0.01424,-0.436418 -0.03051,-0.436418 -0.01411,0 -0.01871,0.0212 -0.01114,0.05136 0.01685,0.06715 -0.07503,0.407536 -0.175572,0.650424 -0.305134,0.737127 -0.919594,1.339443 -1.670797,1.637777 -0.08883,0.03528 -0.279816,0.09507 -0.424404,0.132876 l -0.262887,0.06873 -5.37187,-0.002 c -4.4357458,-0.0016 -5.4007505,-0.0072 -5.5375982,-0.03213 z M 13.481489,13.938932 c 0.02087,-0.01159 0.117027,-0.05175 0.21369,-0.08925 0.25041,-0.09715 0.416331,-0.204824 0.626765,-0.406748 0.301559,-0.289366 0.490431,-0.577649 0.569332,-0.868997 0.05188,-0.191575 0.07786,-2.6425291 0.07056,-6.6567354 l -0.0061,-3.3477087 -0.0943,-0.2342541 C 14.7473,2.0517115 14.553915,1.7516766 14.376305,1.5825588 14.13234,1.3502587 13.726028,1.1235321 13.472907,1.0784525 13.12406,1.0163246 3.828826,0.99469766 2.8354871,1.0537027 2.5733701,1.0692726 2.4849289,1.0837056 2.3493511,1.1330367 2.1069921,1.2212212 1.8581324,1.3760602 1.6593726,1.5623374 1.3846244,1.8198308 1.2262637,2.0715281 1.0882634,2.470054 l -0.049736,0.1436311 0.0057,4.4636115 c 0.00314,2.4549864 0.013216,4.6873444 0.0224,4.9607964 0.015631,0.465433 0.020495,0.507045 0.076172,0.651593 0.097077,0.252032 0.2454954,0.467476 0.4873088,0.707377 0.3255827,0.323009 0.6540344,0.495796 1.0229804,0.538156 0.2375273,0.02727 10.7794664,0.03089 10.8283974,0.0037 z m 2.495997,-1.895315 c -0.0044,-0.06988 -0.008,-0.01271 -0.008,0.127058 0,0.139764 0.0036,0.19694 0.008,0.127058 0.0044,-0.06988 0.0044,-0.184234 0,-0.254116 z"
       id="path4546"
       inkscape:connector-curvature="0" />
  </g>
</svg>
